<svg id="Белый_без" data-name="Белый без" xmlns="http://www.w3.org/2000/svg" viewBox="0 0 977 977"><defs><style>.cls-1,.cls-2{fill:#fff;}.cls-2{stroke:#fff;stroke-miterlimit:10;}</style></defs><path class="cls-1" d="M49.88,690.35c25.21-98.51,88.87-184.42,172.27-242.42a463.62,463.62,0,0,1,173.73-74.1C579.77,336.06,775,415.1,876.21,573.88c2.95,5,7.7,12.31,10.51,17.41,5.7,10.21,11.63,21.34,16.51,32a392.64,392.64,0,0,1,21.58,58.54l2.31,8.55-3.24,1.3c-35.19-85.92-96.47-160.71-173.5-212.41-198.21-135.32-476-93.77-626.15,93.33A467.52,467.52,0,0,0,53.12,691.65l-3.24-1.3Z"/><path class="cls-1" d="M227.5,793.5c42.72-179.59,90.32-358.6,138.73-536.76,3.72-14.18,23.71-16.49,30.07-2.19,25.09,64.38,51.57,133.25,76.23,198,3.45,9,12.55,33.06,15.93,41.87-.12-.13.65,1.32-.85-1.81-6.95-12.62-25.62-10.53-29.74,3.11l.13-.44,1.05-3.55c33.89-113.81,77-258.41,112.71-371.54,7.62-15.08,29.29-11.71,32.6,4.06.16.66.54,2.44.7,3.16,31.78,143.37,63.16,289.89,92.22,433.73,15.53,77.33,30.84,154.69,44.82,232.33-10.78-38-21.13-76-31.36-114.1-48.58-181.25-94.42-365.22-138.27-547.75a15.4,15.4,0,0,0,28.76,2.93c1.25-2.92.81-2.2.82-2l-.26.89-2.06,7.09c-31.08,106.79-73.14,247.61-105.54,354.08L492,501.67,491,505.2l-.14.45c-4.58,15.26-25.55,17.65-33.34,3.51-29.93-79.51-59.79-162.81-88.65-242.63l-.15-.44c.05.13-.35-.9.08.19a14.21,14.21,0,0,0,3.87,5.21,14,14,0,0,0,18.05-.05,14.23,14.23,0,0,0,3.87-5.35c1-2.93.2-.56.39-1.1C341.36,441.68,286.65,618.62,227.5,793.5Z"/><path class="cls-2" d="M382.75,312.75c3.59,0,6.64,4.28,7.77,10.25a27.13,27.13,0,0,0,.48-5.12c0-8.5-3.69-15.38-8.25-15.38s-8.25,6.88-8.25,15.38A27.13,27.13,0,0,0,375,323C376.11,317,379.16,312.75,382.75,312.75Z"/><path class="cls-2" d="M585.75,197.75c3.59,0,6.64,5.12,7.77,12.25a38.45,38.45,0,0,0,.48-6.12c0-10.15-3.69-18.38-8.25-18.38s-8.25,8.23-8.25,18.38A38.45,38.45,0,0,0,578,210C579.11,202.87,582.16,197.75,585.75,197.75Z"/><path class="cls-2" d="M471.3,443.78c-3.44,0-6.33-3.5-7.37-8.3a18.56,18.56,0,0,0-.5,4.1c-.07,6.82,3.42,12.38,7.79,12.42s8-5.44,8-12.25a18.81,18.81,0,0,0-.42-4.12C477.7,440.41,474.75,443.81,471.3,443.78Z"/></svg>